# xmcd CD database file
#
# Track frame offsets:
#	150
#	10488
#	22646
#	35610
#	64222
#	71612
#	80522
#	105509
#	116881
#	140908
#	163541
#	178607
#	196254
#	225434
#	250690
#	280261
#	295401
#	298169
#	305411
#
# Disc length: 4272 seconds
#
# Revision: 4
# Processed by: cddbd v1.5.1PL0 Copyright (c) Steve Scherf et al.
# Submitted via: CDex 1.51
#
DISCID=1410ae13
DTITLE=Olivia Hime - Mar de Algodao
DYEAR=2001
DGENRE=MPB
TTITLE0=Abertura
TTITLE1=Pescaria(Canoeiro)
TTITLE2=Milagre
TTITLE3=Dois de Fevereiro-Festa de Rua
TTITLE4=Morena do Mar
TTITLE5=Morena do Mar
TTITLE6=Quem vem pra beira do mar
TTITLE7=Mar da Tarde
TTITLE8=Saudade de Itapoã
TTITLE9=O Bem do Mar
TTITLE10=Cantiga da Noiva
TTITLE11=O Mar
TTITLE12=Noite de Temporal - O Vento
TTITLE13=Lenda do Abaeté
TTITLE14=Temporal
TTITLE15=É Doce morrer no Mar
TTITLE16=Adeus da Esposa
TTITLE17=Sargaço do Mar
TTITLE18=Quem Vem Prá Beira Do Mar
EXTD=As Marinhas de Caymi YEAR: 2001
EXTT0=
EXTT1=
EXTT2=
EXTT3=
EXTT4=
EXTT5=
EXTT6=
EXTT7=
EXTT8=
EXTT9=
EXTT10=
EXTT11=
EXTT12=
EXTT13=
EXTT14=
EXTT15=
EXTT16=
EXTT17=
EXTT18=
PLAYORDER=
